<mxfile host="app.diagrams.net" modified="2022-04-09T14:07:58.179Z" agent="5.0 (Windows NT 10.0; Win64; x64) AppleWebKit/537.36 (KHTML, like Gecko) Chrome/100.0.4896.75 Safari/537.36" etag="yZiYMO3AD_3H-hFtjyRL" version="16.5.6" type="github">
  <diagram id="DinYnyuuIt0UWm_VoxBc" name="Page-1">
    <mxGraphModel dx="1422" dy="705" grid="1" gridSize="10" guides="1" tooltips="1" connect="1" arrows="1" fold="1" page="1" pageScale="1" pageWidth="827" pageHeight="1169" math="0" shadow="0">
      <root>
        <mxCell id="0" />
        <mxCell id="1" parent="0" />
        <mxCell id="0__vjg7KVdcd60gSTO_--18" value="" style="verticalLabelPosition=bottom;verticalAlign=top;html=1;shape=mxgraph.basic.half_circle;shadow=0;sketch=0;fontSize=20;strokeColor=none;strokeWidth=2;fillColor=#D6D6D6;gradientColor=none;direction=west;" vertex="1" parent="1">
          <mxGeometry x="50" y="760" width="400" height="200" as="geometry" />
        </mxCell>
        <mxCell id="0__vjg7KVdcd60gSTO_--8" value="Bosonen" style="text;strokeColor=none;fillColor=none;html=1;fontSize=24;fontStyle=1;verticalAlign=middle;align=center;opacity=10;" vertex="1" parent="1">
          <mxGeometry x="190" y="780" width="100" height="40" as="geometry" />
        </mxCell>
        <mxCell id="0__vjg7KVdcd60gSTO_--25" value="" style="verticalLabelPosition=bottom;verticalAlign=top;html=1;shape=mxgraph.basic.half_circle;shadow=0;sketch=0;fontSize=20;strokeColor=none;strokeWidth=2;fillColor=#D6D6D6;gradientColor=none;direction=west;" vertex="1" parent="1">
          <mxGeometry x="250" y="760" width="400" height="200" as="geometry" />
        </mxCell>
        <mxCell id="0__vjg7KVdcd60gSTO_--26" value="" style="verticalLabelPosition=bottom;verticalAlign=top;html=1;shape=mxgraph.basic.half_circle;shadow=0;sketch=0;fontSize=20;strokeColor=none;strokeWidth=2;fillColor=#D6D6D6;gradientColor=none;direction=west;" vertex="1" parent="1">
          <mxGeometry x="452" y="760" width="400" height="200" as="geometry" />
        </mxCell>
        <mxCell id="0__vjg7KVdcd60gSTO_--20" value="" style="verticalLabelPosition=bottom;verticalAlign=top;html=1;shape=mxgraph.basic.half_circle;shadow=0;sketch=0;fontSize=20;strokeColor=#66FF66;strokeWidth=2;fillColor=none;gradientColor=none;direction=west;fillOpacity=0;" vertex="1" parent="1">
          <mxGeometry x="51" y="760" width="400" height="200" as="geometry" />
        </mxCell>
        <mxCell id="0__vjg7KVdcd60gSTO_--21" value="" style="verticalLabelPosition=bottom;verticalAlign=top;html=1;shape=mxgraph.basic.half_circle;shadow=0;sketch=0;fontSize=20;strokeColor=#FF3333;strokeWidth=2;fillColor=none;gradientColor=none;direction=west;fillOpacity=0;" vertex="1" parent="1">
          <mxGeometry x="250" y="760" width="400" height="200" as="geometry" />
        </mxCell>
        <mxCell id="0__vjg7KVdcd60gSTO_--22" value="" style="verticalLabelPosition=bottom;verticalAlign=top;html=1;shape=mxgraph.basic.half_circle;shadow=0;sketch=0;fontSize=20;strokeColor=#0000FF;strokeWidth=2;fillColor=none;gradientColor=none;direction=west;fillOpacity=0;" vertex="1" parent="1">
          <mxGeometry x="452" y="760" width="400" height="200" as="geometry" />
        </mxCell>
        <mxCell id="0__vjg7KVdcd60gSTO_--11" value="&lt;font style=&quot;font-size: 20px&quot;&gt;&lt;b&gt;Eichbosonen,&lt;br&gt;Higgsboson&lt;/b&gt;&lt;br&gt;&lt;/font&gt;" style="text;html=1;strokeColor=none;fillColor=none;align=center;verticalAlign=middle;whiteSpace=wrap;rounded=0;opacity=10;" vertex="1" parent="1">
          <mxGeometry x="150" y="870" width="60" height="30" as="geometry" />
        </mxCell>
        <mxCell id="0__vjg7KVdcd60gSTO_--12" value="&lt;font style=&quot;font-size: 20px&quot;&gt;&lt;b&gt;Mesonen&lt;/b&gt;&lt;/font&gt;" style="text;html=1;strokeColor=none;fillColor=none;align=center;verticalAlign=middle;whiteSpace=wrap;rounded=0;opacity=10;" vertex="1" parent="1">
          <mxGeometry x="320" y="860" width="60" height="30" as="geometry" />
        </mxCell>
        <mxCell id="0__vjg7KVdcd60gSTO_--13" value="&lt;font style=&quot;font-size: 20px&quot;&gt;&lt;b&gt;Baryonen&lt;/b&gt;&lt;/font&gt;" style="text;html=1;strokeColor=none;fillColor=none;align=center;verticalAlign=middle;whiteSpace=wrap;rounded=0;opacity=10;" vertex="1" parent="1">
          <mxGeometry x="530" y="860" width="60" height="30" as="geometry" />
        </mxCell>
        <mxCell id="0__vjg7KVdcd60gSTO_--14" value="&lt;font style=&quot;font-size: 20px&quot;&gt;&lt;b&gt;Leptonen&lt;/b&gt;&lt;/font&gt;" style="text;html=1;strokeColor=none;fillColor=none;align=center;verticalAlign=middle;whiteSpace=wrap;rounded=0;opacity=10;" vertex="1" parent="1">
          <mxGeometry x="700" y="860" width="60" height="30" as="geometry" />
        </mxCell>
        <mxCell id="0__vjg7KVdcd60gSTO_--10" value="Fermionen" style="text;strokeColor=none;fillColor=none;html=1;fontSize=24;fontStyle=1;verticalAlign=middle;align=center;opacity=10;" vertex="1" parent="1">
          <mxGeometry x="609" y="780" width="100" height="40" as="geometry" />
        </mxCell>
        <mxCell id="0__vjg7KVdcd60gSTO_--9" value="Hadronen" style="text;strokeColor=none;fillColor=none;fontSize=24;fontStyle=1;verticalAlign=middle;align=center;opacity=10;fontColor=#000000;labelBorderColor=none;labelBackgroundColor=none;glass=0;rounded=0;perimeterSpacing=5;html=1;horizontal=1;dropTarget=0;backgroundOutline=0;fillOpacity=100;strokeOpacity=100;" vertex="1" parent="1">
          <mxGeometry x="400" y="780" width="100" height="40" as="geometry" />
        </mxCell>
        <mxCell id="0__vjg7KVdcd60gSTO_--28" value="" style="endArrow=none;dashed=1;html=1;rounded=0;fontSize=20;fontColor=#000000;strokeWidth=2;entryX=0.14;entryY=0.695;entryDx=0;entryDy=0;entryPerimeter=0;" edge="1" parent="1">
          <mxGeometry width="50" height="50" relative="1" as="geometry">
            <mxPoint x="107" y="820" as="sourcePoint" />
            <mxPoint x="801" y="821" as="targetPoint" />
          </mxGeometry>
        </mxCell>
        <mxCell id="0__vjg7KVdcd60gSTO_--29" value="" style="endArrow=none;html=1;rounded=0;fontSize=20;fontColor=#000000;strokeWidth=2;" edge="1" parent="1">
          <mxGeometry width="50" height="50" relative="1" as="geometry">
            <mxPoint x="50" y="960" as="sourcePoint" />
            <mxPoint x="854" y="960" as="targetPoint" />
          </mxGeometry>
        </mxCell>
      </root>
    </mxGraphModel>
  </diagram>
</mxfile>
